<?xml version="1.0" encoding="UTF-8" standalone="no"?>
<!-- This "Chameleon Skin Logo" was derived from the "Chameleon free icon"
(http://www.flaticon.com/free-icon/chameleon_36320) made by Freepik
(http://www.freepik.com) from www.flaticon.com (http://www.flaticon.com),
which is licensed under CC BY 3.0 (http://creativecommons.org/licenses/by/3.0/).
The "Chameleon Skin Logo"
(https://github.com/cmln/chameleon/blob/master/docs/Chameleon.svg)
itself was made by Stephan Gambke (https://www.mediawiki.org/wiki/User:F.trott)
and is licensed under CC BY 3.0 (http://creativecommons.org/licenses/by/3.0/)
as well.
 -->
<svg
   xmlns:dc="http://purl.org/dc/elements/1.1/"
   xmlns:cc="http://creativecommons.org/ns#"
   xmlns:rdf="http://www.w3.org/1999/02/22-rdf-syntax-ns#"
   xmlns:svg="http://www.w3.org/2000/svg"
   xmlns="http://www.w3.org/2000/svg"
   xmlns:xlink="http://www.w3.org/1999/xlink"
   xmlns:sodipodi="http://sodipodi.sourceforge.net/DTD/sodipodi-0.dtd"
   xmlns:inkscape="http://www.inkscape.org/namespaces/inkscape"
   version="1.1"
   id="Layer_1"
   x="0px"
   y="0px"
   width="169.79723"
   height="135.93365"
   viewBox="0 0 169.79722 135.93366"
   enable-background="new 0 0 50 50"
   xml:space="preserve"
   inkscape:version="0.48.4 r9939"
   sodipodi:docname="Chameleon.svg"><metadata
     id="metadata3082"><rdf:RDF><cc:Work
         rdf:about=""><dc:format>image/svg+xml</dc:format><dc:type
           rdf:resource="http://purl.org/dc/dcmitype/StillImage" /><dc:title></dc:title></cc:Work></rdf:RDF></metadata><defs
     id="defs3080"><linearGradient
       id="linearGradient6292"><stop
         style="stop-color:#005800;stop-opacity:1;"
         offset="0"
         id="stop6294" /><stop
         id="stop6296"
         offset="0.37156528"
         style="stop-color:#3e7e00;stop-opacity:1;" /><stop
         id="stop6298"
         offset="0.54123485"
         style="stop-color:#a48000;stop-opacity:1;" /><stop
         style="stop-color:#ca6900;stop-opacity:1;"
         offset="0.71649456"
         id="stop6300" /><stop
         id="stop6302"
         offset="1"
         style="stop-color:#f00000;stop-opacity:1;" /></linearGradient><marker
       inkscape:stockid="Arrow2Sstart"
       orient="auto"
       refY="0"
       refX="0"
       id="Arrow2Sstart"
       style="overflow:visible"><path
         id="path5498"
         style="fill-rule:evenodd;stroke-width:0.625;stroke-linejoin:round"
         d="M 8.7185878,4.0337352 -2.2072895,0.01601326 8.7185884,-4.0017078 c -1.7454984,2.3720609 -1.7354408,5.6174519 -6e-7,8.035443 z"
         transform="matrix(0.3,0,0,0.3,-0.69,0)"
         inkscape:connector-curvature="0" /></marker><marker
       inkscape:stockid="Arrow1Lstart"
       orient="auto"
       refY="0"
       refX="0"
       id="Arrow1Lstart"
       style="overflow:visible"><path
         id="path5468"
         d="M 0,0 5,-5 -12.5,0 5,5 0,0 z"
         style="fill-rule:evenodd;stroke:#000000;stroke-width:1pt"
         transform="matrix(0.8,0,0,0.8,10,0)"
         inkscape:connector-curvature="0" /></marker><linearGradient
       id="linearGradient5440"><stop
         id="stop5452"
         offset="0"
         style="stop-color:#008000;stop-opacity:1;" /><stop
         style="stop-color:#4d9c00;stop-opacity:1;"
         offset="0.25"
         id="stop5462" /><stop
         style="stop-color:#b6b800;stop-opacity:1;"
         offset="0.5"
         id="stop5456" /><stop
         id="stop5458"
         offset="0.75"
         style="stop-color:#d46e00;stop-opacity:1;" /><stop
         style="stop-color:#f00000;stop-opacity:1;"
         offset="1"
         id="stop5444" /></linearGradient><filter
       id="filter3128"
       inkscape:label="filter1"
       color-interpolation-filters="sRGB" /><linearGradient
       inkscape:collect="always"
       xlink:href="#linearGradient5440"
       id="linearGradient5446"
       x1="40.438602"
       y1="31.862434"
       x2="9.5576677"
       y2="26.854158"
       gradientUnits="userSpaceOnUse"
       gradientTransform="matrix(4.9103956,0,0,4.9103956,-156.98426,-138.95327)" /><linearGradient
       inkscape:collect="always"
       xlink:href="#linearGradient6292"
       id="linearGradient6290"
       gradientUnits="userSpaceOnUse"
       gradientTransform="matrix(4.7197199,0,0,4.7197199,-143.09072,-126.16233)"
       x1="40.438602"
       y1="31.862434"
       x2="9.5576677"
       y2="26.854158" /><linearGradient
       inkscape:collect="always"
       xlink:href="#linearGradient6292"
       id="linearGradient3004"
       gradientUnits="userSpaceOnUse"
       gradientTransform="matrix(-4.7197199,0,0,4.7197199,202.88608,-50.037325)"
       x1="40.438602"
       y1="31.862434"
       x2="9.5576677"
       y2="26.854158" /></defs><sodipodi:namedview
     pagecolor="#ffffff"
     bordercolor="#666666"
     borderopacity="1"
     objecttolerance="10"
     gridtolerance="10"
     guidetolerance="10"
     inkscape:pageopacity="0"
     inkscape:pageshadow="2"
     inkscape:window-width="1920"
     inkscape:window-height="1060"
     id="namedview3078"
     showgrid="false"
     inkscape:zoom="5.6568542"
     inkscape:cx="100.26752"
     inkscape:cy="73.341098"
     inkscape:window-x="1917"
     inkscape:window-y="-3"
     inkscape:window-maximized="1"
     inkscape:current-layer="Layer_1"
     fit-margin-top="10"
     fit-margin-left="10"
     fit-margin-bottom="10"
     fit-margin-right="10" /><g
     id="g3011"><circle
       cx="16.858999"
       cy="16.249001"
       r="0.82700002"
       id="circle3074"
       d="m 17.685999,16.249001 c 0,0.456739 -0.37026,0.827 -0.827,0.827 -0.456739,0 -0.827,-0.370261 -0.827,-0.827 0,-0.45674 0.370261,-0.827 0.827,-0.827 0.45674,0 0.827,0.37026 0.827,0.827 z"
       sodipodi:cx="16.858999"
       sodipodi:cy="16.249001"
       sodipodi:rx="0.82700002"
       sodipodi:ry="0.82700002"
       transform="matrix(-4.7197199,0,0,4.7197199,208.89614,-46.148465)" /><path
       d="M 56.461489,13.329625 C 75.340365,8.55327 90.438752,9.752078 110.4126,21.68825 c 0.45782,-4.361021 11.94089,-17.448805 25.94431,-8.25951 14.92375,-1.84541 14.92375,13.540876 14.92375,13.540876 0,0 8.15567,14.343229 8.26423,19.747309 0.0755,3.615304 -2.105,4.592287 -4.19111,5.215291 -10.78457,-6.140356 -20.57327,-4.681963 -28.52599,-3.492594 -4.14391,0.618283 -7.73562,1.142171 -10.42115,0.387019 -0.92978,-0.269042 -1.90676,0.283172 -2.17106,1.217687 -0.26432,0.929787 0.28316,1.906765 1.21296,2.175788 3.41708,0.958106 7.34861,0.377582 11.89842,-0.302061 7.11733,-1.061937 15.81105,-2.293784 25.14667,2.525052 -8.86364,15.442927 -33.42507,20.681817 -51.2656,8.349183 -3.893775,0.245419 -9.000503,0.825949 -14.508426,1.283765 -1.014734,0.08026 -0.01875,3.289641 0.967542,6.489622 0.344541,1.11385 13.512564,3.870166 13.772144,4.847146 0.4767,1.835967 -11.97393,0.339821 -12.861234,1.609429 -0.882593,1.274318 1.6047,7.117332 0.457814,9.878366 -0.76459,1.835977 -6.985189,-0.04719 -8.726761,-4.365735 -0.873153,-2.152192 2.79879,-6.418821 1.982278,-8.127366 -2.44953,-5.116168 -4.597003,-9.78398 -4.979308,-9.774542 -2.553364,0.08026 -5.097291,0.08496 -7.565706,-0.03306 -5.153932,-0.235987 -10.133238,-0.717387 -14.73496,-1.118568 -0.585246,-0.0519 -1.566955,2.00588 -2.605287,4.403498 -0.471972,1.094973 8.627645,2.756315 8.155673,3.83714 -0.958103,2.194666 -8.953308,0.717388 -11.936171,3.464265 -2.987584,2.756315 -3.08198,10.175722 -5.281365,11.025271 -1.212976,0.467248 -6.296109,-3.181099 -5.281374,-7.806418 1.481998,-6.749201 9.609354,-15.457085 9.184575,-15.475965 -5.640062,-0.259578 -10.326742,0.0095 -13.54559,1.675503 -11.940891,6.178116 -3.21885,52.143469 26.633377,54.441969 16.259431,1.25073 21.691832,-11.75682 19.671793,-19.01103 C 78.030599,92.866324 69.077293,88.967833 62.87558,89.892899 c -6.196992,0.9109 -7.343878,6.654808 -4.592282,10.553291 0.363418,0.51446 0.783468,0.99114 1.231844,1.43007 1.061937,-1.07609 2.539206,-1.75101 4.172232,-1.75101 3.237726,0 5.86189,2.62889 5.86189,5.86189 0,3.24245 -2.624164,5.8619 -5.86189,5.8619 -2.93094,0 -5.333286,-2.14748 -5.772223,-4.96515 -1.576375,-0.39174 -3.133891,-1.15633 -4.455403,-2.52977 -5.281374,-5.512632 -4.129758,-15.386287 5.87132,-18.775042 11.190465,-3.785217 26.87409,3.247164 27.336624,15.188052 0.457805,11.93617 -10.496657,25.93958 -29.361375,24.86349 C 29.294777,124.01649 9.146293,94.933587 10.274301,68.083094 11.246562,45.338765 23.395122,21.68825 56.461489,13.329625 z m 70.413501,25.812147 c 6.27722,0 11.36508,-5.087855 11.36508,-11.365084 0,-6.277227 -5.08786,-11.365085 -11.36508,-11.365085 -6.27252,0 -11.36037,5.087858 -11.36037,11.365085 0,6.277229 5.08313,11.365084 11.36037,11.365084 z"
       id="path3076"
       inkscape:connector-curvature="0"
       style="fill:url(#linearGradient3004);fill-opacity:1;stroke:#000000;stroke-width:0.5;stroke-linecap:round;stroke-linejoin:bevel;stroke-miterlimit:4;stroke-opacity:1;stroke-dasharray:none;marker-mid:none"
       sodipodi:nodetypes="cccccccccccccccccccccccccccccccscccssscccccccsssss" /><path
       inkscape:connector-curvature="0"
       id="path3009"
       d="m 124.55664,38.535352 c -0.63198,-0.14224 -1.78544,-0.574751 -2.56326,-0.961133 -5.52199,-2.743062 -7.67517,-9.334077 -4.85811,-14.870989 0.94183,-1.85117 2.90602,-3.813677 4.7673,-4.763233 2.03593,-1.038652 5.24575,-1.431054 7.42704,-0.90796 1.49263,0.357944 3.71159,1.518534 4.85957,2.541709 1.23734,1.102829 2.55958,3.06423 3.09552,4.591882 0.48821,1.391623 0.66713,4.2598 0.36415,5.837429 -0.49023,2.552607 -2.46007,5.446258 -4.73928,6.96188 -2.31095,1.536728 -5.68456,2.170993 -8.35293,1.570415 z m 6.05496,-4.231795 c 1.64197,-0.58596 2.63235,-1.975862 2.63235,-3.694225 0,-2.322833 -1.61862,-3.995243 -3.87582,-4.004628 -2.29167,-0.0095 -3.96296,1.638954 -3.96296,3.908872 0,2.25405 1.72762,4.026677 3.92444,4.026677 0.3403,0 0.91719,-0.106513 1.28199,-0.236696 z"
       style="fill:#ffffff" /></g></svg>
